PathFileType   4   (X/Y/Z)																																																																																																																						
DataRate	CameraRate	NumFrames	NumMarkers	Units	OrigDataRate	OrigDataStartFrame	OrigNumFrames																																																																																																															
120	120	5	37	mm	120	30	116																																																																																																															
Frame#	Time	Sternum	R.Acromium	L.Acromium	Top.Head	R.ASIS	L.ASIS	V.Sacral	R.Thigh.Upper	R.Thigh.Front	R.Thigh.Rear	R.Knee.Lat	R.Knee.Med	R.Shank.Upper	R.Shank.Front	R.Shank.Rear	R.Ankle.Lat	R.Ankle.Med	R.Heel	R.Midfoot.Sup	R.Midfoot.Lat	R.Toe.Lat	R.Toe.Med	R.Toe.Tip	L.Thigh.Upper	L.Thigh.Front	L.Thigh.Rear	L.Knee.Lat	L.Knee.Med	L.Shank.Upper	L.Shank.Front	L.Shank.Rear	L.Ankle.Lat	L.Ankle.Med	L.Heel	L.Midfoot.Sup	L.Midfoot.Lat	L.Toe.Lat	L.Toe.Med	L.Toe.Tip																																																																														
 	 	X1	Y1	Z1	X2	Y2	Z2	X3	Y3	Z3	X4	Y4	Z4	X5	Y5	Z5	X6	Y6	Z6	X7	Y7	Z7	X8	Y8	Z8	X9	Y9	Z9	X10	Y10	Z10	X11	Y11	Z11	X12	Y12	Z12	X13	Y13	Z13	X14	Y14	Z14	X15	Y15	Z15	X16	Y16	Z16	X17	Y17	Z17	X18	Y18	Z18	X19	Y19	Z19	X20	Y20	Z20	X21	Y21	Z21	X22	Y22	Z22	X23	Y23	Z23	X24	Y24	Z24	X25	Y25	Z25	X26	Y26	Z26	X27	Y27	Z27	X28	Y28	Z28	X29	Y29	Z29	X30	Y30	Z30	X31	Y31	Z31	X32	Y32	Z32	X33	Y33	Z33	X34	Y34	Z34	X35	Y35	Z35	X36	Y36	Z36	X37	Y37	Z37	X38	Y38	Z38	X39	Y39	Z39
																																																																																																																						
30	0.375	925.2482837	-0.000992919	1.25E+03	815.7942912	-160.4625222	1370.877379	820.0215	163.6853836	1384.14229	924.544418	-9.995724821	1620.318084	904.0855301	-119.563877	907.8289425	908.8922997	121.1976851	899.6722367	726.5857706	-5.695750883	932.579327	926.5736232	-151.852957	680.4746845	992.0627491	-72.89581202	656.6426728	964.0205958	-144.0380039	587.1518048	966.7290856	-128.7803171	509.084256	971.6772611	-28.27664901	496.0922372	949.6054185	-139.9773559	439.3880998	1005.375683	-92.759033	394.1394769	945.1547886	-148.0192813	364.3552269	887.3972304	-126.2596959	123.657303	896.9808819	-48.83628676	134.247552	823.5366273	-81.79932302	116.9681902	950.1962088	-50.48617332	101.4153598	942.119033	-145.6838404	85.17689653	1015.707531	-153.7519611	48.44254817	1020.053441	-57.55224411	59.39250361	1073.10494	-85.7250635	48.99248362	831.2823157	155.8898652	650.9220268	895.2190298	93.1736068	614.7493867	820.7575199	143.1256019	561.0687167	795.9615767	130.2344758	453.9991763	796.9920583	33.90932835	454.5616035	783.393568	146.028905	385.2491439	811.2397919	97.96343807	334.5743963	760.5852458	155.397025	352.0366553	715.194975	125.837295	83.28490559	723.0701531	46.58044596	102.2215203	644.6905141	79.29350631	73.32843747	797.5633501	55.87355549	69.59624722	781.2651832	143.3687015	70.24061386	836.5276642	152.6622596	47.41944281	851.6344336	62.03409965	46.80421424	895.2762582	84.48225282	45.81565723
31	0.38333	934.0983924	-0.000992919	1.25E+03	824.7734699	-160.4625222	1369.979324	829.0147672	163.6853836	1383.239737	933.7885077	-9.995724821	1619.304368	912.6123365	-119.563877	906.9134699	917.4160905	121.1976851	898.7549878	735.1217383	-5.695750883	931.7294671	935.6104619	-151.852957	680.0535415	1001.189406	-72.89581202	656.4698076	973.4107211	-144.0380039	586.8732001	976.4149518	-128.7803171	508.8164727	981.4123122	-28.27664901	495.8432934	961.3500554	-139.9773559	437.8300189	1019.483642	-92.759033	395.6607595	960.9599553	-148.0192813	362.6662779	916.2916802	-126.2596959	119.199296	925.2891414	-48.83628676	130.291881	852.9027431	-81.79932302	108.9881677	980.2278629	-50.48617332	100.4527135	973.0596341	-145.6838404	83.79303293	1048.564195	-153.7519611	51.17799599	1052.298861	-57.55224411	62.35121069	1105.843675	-85.7250635	54.89635403	837.4573814	155.8898652	649.7180931	900.9025507	93.1736068	612.6900795	825.7268533	143.1256019	560.0142282	799.4952602	130.2344758	453.2873393	800.533202	33.90932835	453.835877	786.2712103	146.028905	384.6823751	813.7018501	97.96343807	333.7814691	763.1918867	155.397025	351.6576301	715.6040441	125.837295	83.28628869	723.6339095	46.58044596	102.1578299	645.0880662	79.29350631	73.55821549	797.9488035	55.87355549	69.35961461	781.6526784	143.3687015	70.05370535	836.8452729	152.6622596	47.06403	851.9500949	62.03409965	46.40271225	895.5887002	84.48225282	45.28100493
32	0.39167	942.9576943	-0.000992919	1.25E+03	833.7460836	-160.4625222	1368.991506	837.9997343	163.6853836	1382.247962	942.9933794	-9.995724821	1618.214868	921.1965689	-119.563877	905.9269161	925.9988771	121.1976851	897.7675829	743.710371	-5.695750883	930.7743648	944.4964012	-151.852957	679.3540157	1010.127592	-72.89581202	655.9160729	982.5036373	-144.0380039	586.2579061	985.6813222	-128.7803171	508.2080475	990.7074999	-28.27664901	495.2460057	972.7126846	-139.9773559	436.0178175	1033.044553	-92.759033	397.0585317	976.3934843	-148.0192813	360.9432423	944.9751731	-126.2596959	115.4145968	953.3587373	-48.83628676	126.9781429	882.2284398	-81.79932302	101.7999228	1009.828606	-50.48617332	100.1452934	1003.5695	-145.6838404	83.12318851	1080.723503	-153.7519611	54.62864058	1083.850005	-57.55224411	65.98704874	1137.719	-85.7250635	61.43145567	843.7258434	155.8898652	648.4582412	906.6732501	93.1736068	610.5902164	830.8040518	143.1256019	558.9182168	803.1562144	130.2344758	452.5494132	804.2013554	33.90932835	453.0841066	789.2593671	146.028905	384.0976814	816.2506824	97.96343807	332.9624575	765.8965232	155.397025	351.2728967	715.9995007	125.837295	83.32128393	724.1915711	46.58044596	102.1229803	645.4669065	79.29350631	73.86125253	798.3114435	55.87355549	69.10933208	782.0179378	143.3687015	69.8624093	837.1269494	152.6622596	46.67309057	852.2292785	62.03409965	45.95709857	895.8635374	84.48225282	44.67742935
33	0.4	951.8278603	-0.000992919	1.25E+03	842.713546	-160.4625222	1367.914183	846.9777929	163.6853836	1381.167233	952.1600425	-9.995724821	1617.05013	929.8438167	-119.563877	904.8759827	934.6467423	121.1976851	896.7170128	752.3557392	-5.695750883	929.7100023	953.2581419	-151.852957	678.3880014	1018.907122	-72.89581202	654.9999313	991.3361006	-144.0380039	585.3207962	994.5730861	-128.7803171	507.2733746	999.6091109	-28.27664901	494.3151553	983.7120342	-139.9773559	433.9758537	1046.05227	-92.759033	398.318382	991.425959	-148.0192813	359.2079763	973.2607541	-126.2596959	112.3447522	981.0101472	-48.83628676	124.3425293	911.3057797	-81.79932302	95.47160963	1038.81767	-50.48617332	100.4973401	1033.458012	-145.6838404	83.17098643	1111.997571	-153.7519611	58.75342734	1114.525334	-57.55224411	70.25989802	1168.558924	-85.7250635	68.52984013	850.1007054	155.8898652	647.1425241	912.5449705	93.1736068	608.4504439	836.0031933	143.1256019	557.7800666	806.9597244	130.2344758	451.7838298	808.0118027	33.90932835	452.3047406	792.3730854	146.028905	383.493841	818.9007806	97.96343807	332.1165735	768.7142984	155.397025	350.8817151	716.3957052	125.837295	83.39237986	724.7575011	46.58044596	102.1192102	645.8422497	79.29350631	74.2380306	798.6657039	55.87355549	68.85053663	782.3754708	143.3687015	69.67136501	837.3875715	152.6622596	46.25307215	852.4867925	62.03409965	45.47428226	896.1153525	84.48225282	44.01316801
34	0.40833	960.7137064	-0.000992919	1.24E+03	851.6814178	-160.4625222	1366.746994	855.9545898	163.6853836	1379.997169	961.2956849	-9.995724821	1615.809171	938.5600382	-119.563877	903.7661259	943.3660739	121.1976851	895.6089878	761.062506	-5.695750883	928.5324789	961.92485	-151.852957	677.1709817	1027.560401	-72.89581202	653.7452524	999.9494095	-144.0380039	584.0819463	1003.141618	-128.7803171	506.0326805	1008.170208	-28.27664901	493.0715741	994.3686892	-139.9773559	431.7307366	1058.508215	-92.759033	399.4215807	1006.027717	-148.0192813	357.475722	1000.949289	-126.2596959	109.9971661	1008.053035	-48.83628676	122.3881523	939.9102851	-81.79932302	90.03640528	1067.007245	-50.48617332	101.477691	1062.527003	-145.6838404	83.90339462	1142.196643	-153.7519611	63.47234211	1144.141693	-57.55224411	75.09151737	1198.193844	-85.7250635	76.08497067	856.5958629	155.8898652	645.7705375	918.5327392	93.1736068	606.2713392	841.339828	143.1256019	556.5985573	810.9232286	130.2344758	450.9881611	811.9819784	33.90932835	451.4953747	795.629366	146.028905	382.8688018	821.6682506	97.96343807	331.2420769	771.6621266	155.397025	350.4826875	716.8071794	125.837295	83.50194956	725.3463329	46.58044596	102.1485756	646.2297945	79.29350631	74.68745948	799.0265729	55.87355549	68.59010289	782.7403286	143.3687015	69.4865965	837.6430492	152.6622596	45.81300502	852.7384895	62.03409965	44.96408213	896.3597913	84.48225282	43.30031306
